<?xml version="1.0" standalone="no"?>
<!DOCTYPE svg PUBLIC "-//W3C//DTD SVG 20010904//EN"
 "http://www.w3.org/TR/2001/REC-SVG-20010904/DTD/svg10.dtd">
<svg version="1.0" xmlns="http://www.w3.org/2000/svg"
 width="500.000000pt" height="500.000000pt" viewBox="0 0 500.000000 500.000000"
 preserveAspectRatio="xMidYMid meet">
<metadata>
Created by potrace 1.11, written by Peter Selinger 2001-2013
</metadata>
<g transform="translate(0.000000,500.000000) scale(0.100000,-0.100000)"
fill="#000000" stroke="none">
<path d="M0 2500 l0 -2500 2500 0 2500 0 0 2500 0 2500 -2500 0 -2500 0 0
-2500z m3927 1980 c257 -62 453 -248 535 -510 l23 -75 0 -1395 c0 -1566 6
-1444 -75 -1605 -91 -181 -259 -321 -454 -377 l-81 -23 -1390 0 c-1301 0
-1394 1 -1455 18 -266 72 -468 279 -530 540 -20 84 -20 109 -18 1474 l3 1388
28 80 c89 253 291 436 542 490 48 11 340 14 1425 14 1326 1 1367 0 1447 -19z"/>
<path d="M1189 4249 c-234 -35 -440 -200 -523 -419 -47 -125 -47 -149 -44
-1435 3 -1132 5 -1214 22 -1270 54 -181 182 -338 336 -413 157 -77 58 -73
1476 -70 l1269 3 73 27 c104 38 175 83 251 159 76 76 121 147 159 251 l27 73
0 1285 0 1285 -22 70 c-52 163 -178 312 -325 384 -166 81 -55 75 -1423 77
-671 1 -1245 -2 -1276 -7z m1411 -1271 c146 -336 266 -618 268 -625 3 -10 -23
-13 -121 -13 l-124 0 -70 168 -70 167 -207 3 c-160 2 -207 5 -203 15 2 6 19
51 37 100 l33 87 124 0 c68 0 123 3 123 8 1 18 -185 451 -191 444 -3 -4 -95
-225 -203 -492 -108 -267 -201 -489 -205 -493 -4 -4 -59 -6 -123 -5 l-115 3
134 315 c73 173 192 453 264 623 l131 307 127 0 126 0 265 -612z m640 -13 l0
-625 -115 0 -115 0 0 625 0 625 115 0 115 0 0 -625z m383 405 c4 -19 13 -52
18 -72 l10 -38 114 0 115 0 0 -95 0 -95 -100 0 -100 0 0 -235 c0 -304 -1 -301
133 -312 l67 -6 0 -88 0 -89 -131 0 c-152 0 -199 11 -245 57 -61 61 -64 86
-64 575 l0 439 87 -3 87 -3 9 -35z"/>
</g>
</svg>
